<svg width="93" height="27" viewBox="0 0 93 27" fill="none" xmlns="http://www.w3.org/2000/svg">
<path d="M17.8026 0.636363V21H14.0838L5.22443 8.18324H5.07528V21H0.769886V0.636363H4.5483L13.3381 13.4432H13.517V0.636363H17.8026ZM25.6353 21.2884C24.6609 21.2884 23.7925 21.1193 23.0302 20.7812C22.2679 20.4366 21.6647 19.9295 21.2205 19.2599C20.783 18.5838 20.5643 17.742 20.5643 16.7344C20.5643 15.8859 20.7201 15.1733 21.0316 14.5966C21.3432 14.0199 21.7674 13.5559 22.3043 13.2045C22.8413 12.8532 23.4511 12.5881 24.1339 12.4091C24.8233 12.2301 25.5458 12.1042 26.3015 12.0312C27.1897 11.9384 27.9057 11.8523 28.4492 11.7727C28.9928 11.6866 29.3872 11.5606 29.6325 11.3949C29.8777 11.2292 30.0004 10.9839 30.0004 10.6591V10.5994C30.0004 9.9697 29.8015 9.48248 29.4038 9.13778C29.0127 8.79309 28.4558 8.62074 27.7333 8.62074C26.971 8.62074 26.3645 8.78977 25.9137 9.12784C25.4629 9.45928 25.1647 9.87689 25.0188 10.3807L21.1012 10.0625C21.3001 9.13447 21.6912 8.33239 22.2745 7.65625C22.8578 6.97348 23.6102 6.44981 24.5316 6.08523C25.4596 5.71401 26.5335 5.52841 27.7532 5.52841C28.6017 5.52841 29.4137 5.62784 30.1893 5.8267C30.9715 6.02557 31.6642 6.33381 32.2674 6.75142C32.8772 7.16903 33.3578 7.70597 33.7092 8.36222C34.0605 9.01184 34.2362 9.79072 34.2362 10.6989V21H30.2191V18.8821H30.0998C29.8545 19.3594 29.5264 19.7803 29.1154 20.1449C28.7044 20.5028 28.2106 20.7846 27.6339 20.9901C27.0572 21.1889 26.391 21.2884 25.6353 21.2884ZM26.8484 18.3651C27.4715 18.3651 28.0217 18.2424 28.4989 17.9972C28.9762 17.7453 29.3507 17.4072 29.6225 16.983C29.8943 16.5587 30.0302 16.0781 30.0302 15.5412V13.9205C29.8976 14.0066 29.7153 14.0862 29.4833 14.1591C29.2579 14.2254 29.0027 14.2884 28.7177 14.348C28.4326 14.401 28.1476 14.4508 27.8626 14.4972C27.5775 14.5369 27.319 14.5734 27.087 14.6065C26.5898 14.6795 26.1557 14.7955 25.7844 14.9545C25.4132 15.1136 25.1249 15.3291 24.9194 15.6009C24.7139 15.866 24.6112 16.1974 24.6112 16.5952C24.6112 17.1719 24.82 17.6127 25.2376 17.9176C25.6618 18.2159 26.1987 18.3651 26.8484 18.3651ZM37.5224 26.7273V5.72727H41.6985V8.29261H41.8874C42.073 7.88163 42.3415 7.46401 42.6928 7.03977C43.0508 6.6089 43.5148 6.25095 44.0849 5.96591C44.6616 5.67424 45.3775 5.52841 46.2326 5.52841C47.3462 5.52841 48.3737 5.82008 49.315 6.40341C50.2563 6.98011 51.0086 7.8518 51.5721 9.01847C52.1355 10.1785 52.4173 11.6335 52.4173 13.3835C52.4173 15.0871 52.1422 16.5256 51.592 17.6989C51.0484 18.8655 50.306 19.7505 49.3647 20.3537C48.43 20.9503 47.3827 21.2486 46.2227 21.2486C45.4007 21.2486 44.7013 21.1127 44.1246 20.8409C43.5546 20.5691 43.0872 20.2277 42.7227 19.8168C42.3581 19.3991 42.0797 18.9782 41.8874 18.554H41.7582V26.7273H37.5224ZM41.6687 13.3636C41.6687 14.2718 41.7946 15.0639 42.0465 15.7401C42.2984 16.4162 42.663 16.9432 43.1403 17.321C43.6175 17.6922 44.1976 17.8778 44.8803 17.8778C45.5697 17.8778 46.1531 17.6889 46.6303 17.3111C47.1076 16.9266 47.4689 16.3963 47.7141 15.7202C47.966 15.0374 48.092 14.2519 48.092 13.3636C48.092 12.482 47.9693 11.7064 47.7241 11.0369C47.4788 10.3674 47.1175 9.84375 46.6403 9.46591C46.163 9.08807 45.5763 8.89915 44.8803 8.89915C44.1909 8.89915 43.6076 9.08144 43.1303 9.44602C42.6597 9.81061 42.2984 10.3277 42.0465 10.9972C41.7946 11.6667 41.6687 12.4555 41.6687 13.3636ZM59.4769 0.636363V21H55.2411V0.636363H59.4769ZM69.8303 21.2983C68.2592 21.2983 66.907 20.9801 65.7734 20.3438C64.6465 19.7008 63.7782 18.7926 63.1683 17.6193C62.5585 16.4394 62.2536 15.044 62.2536 13.4332C62.2536 11.8622 62.5585 10.4834 63.1683 9.29688C63.7782 8.11032 64.6366 7.18561 65.7436 6.52273C66.8572 5.85985 68.1631 5.52841 69.6612 5.52841C70.6688 5.52841 71.6068 5.69081 72.4751 6.01562C73.3501 6.33381 74.1125 6.81439 74.7621 7.45739C75.4183 8.10038 75.9287 8.90909 76.2933 9.88352C76.6579 10.8513 76.8402 11.9848 76.8402 13.2841V14.4474H63.9439V11.8224H72.853C72.853 11.2126 72.7204 10.6723 72.4553 10.2017C72.1901 9.73106 71.8222 9.36316 71.3516 9.09801C70.8875 8.82623 70.3473 8.69034 69.7308 8.69034C69.0878 8.69034 68.5178 8.83949 68.0206 9.13778C67.5301 9.42945 67.1456 9.82386 66.8672 10.321C66.5888 10.8116 66.4463 11.3584 66.4396 11.9616V14.4574C66.4396 15.2131 66.5788 15.866 66.8572 16.4162C67.1423 16.9664 67.5433 17.3906 68.0604 17.6889C68.5774 17.9872 69.1906 18.1364 69.8999 18.1364C70.3705 18.1364 70.8014 18.0701 71.1925 17.9375C71.5836 17.8049 71.9183 17.6061 72.1967 17.3409C72.4751 17.0758 72.6873 16.7509 72.8331 16.3665L76.7507 16.625C76.5518 17.5663 76.1442 18.3883 75.5277 19.0909C74.9179 19.7869 74.129 20.3305 73.1612 20.7216C72.2 21.1061 71.0897 21.2983 69.8303 21.2983ZM92.3118 10.0824L88.4339 10.321C88.3677 9.98958 88.2251 9.69129 88.0064 9.42614C87.7876 9.15436 87.4993 8.93892 87.1413 8.77983C86.79 8.61411 86.3691 8.53125 85.8786 8.53125C85.2223 8.53125 84.6688 8.67045 84.218 8.94886C83.7673 9.22064 83.5419 9.58523 83.5419 10.0426C83.5419 10.4072 83.6877 10.7154 83.9794 10.9673C84.2711 11.2192 84.7715 11.4214 85.4808 11.5739L88.245 12.1307C89.7299 12.4356 90.8369 12.9261 91.5661 13.6023C92.2952 14.2784 92.6598 15.1667 92.6598 16.267C92.6598 17.268 92.3648 18.1463 91.7749 18.902C91.1915 19.6577 90.3894 20.2476 89.3686 20.6719C88.3544 21.0895 87.1844 21.2983 85.8587 21.2983C83.8369 21.2983 82.2261 20.8774 81.0263 20.0355C79.8331 19.187 79.1338 18.0336 78.9283 16.5753L83.0945 16.3565C83.2204 16.973 83.5253 17.4437 84.0092 17.7685C84.4931 18.0866 85.1129 18.2457 85.8686 18.2457C86.611 18.2457 87.2076 18.1032 87.6584 17.8182C88.1158 17.5265 88.3478 17.152 88.3544 16.6946C88.3478 16.3101 88.1854 15.9953 87.8672 15.75C87.549 15.4981 87.0585 15.3059 86.3956 15.1733L83.7507 14.6463C82.2592 14.348 81.1489 13.831 80.4197 13.0952C79.6972 12.3594 79.3359 11.4214 79.3359 10.2812C79.3359 9.30019 79.6011 8.45502 80.1314 7.74574C80.6683 7.03646 81.4207 6.48958 82.3885 6.10511C83.3629 5.72064 84.5031 5.52841 85.8089 5.52841C87.7379 5.52841 89.2559 5.93608 90.3629 6.75142C91.4766 7.56676 92.1262 8.67708 92.3118 10.0824Z" fill="url(#paint0_linear_5_12)"/>
<defs>
<linearGradient id="paint0_linear_5_12" x1="-1" y1="10.4138" x2="94" y2="10.4138" gradientUnits="userSpaceOnUse">
<stop stop-color="#67666A"/>
<stop offset="1" stop-color="#C0C0C2"/>
</linearGradient>
</defs>
</svg>
